<svg id="Layer_1" data-name="Layer 1" xmlns="http://www.w3.org/2000/svg" viewBox="0 0 813.43 718.2"><defs><style>.cls-1{fill:#fff;}</style></defs><path class="cls-1" d="M918.74,502.86A163.45,163.45,0,0,0,817.8,351.77a163.56,163.56,0,0,0-252.94-100,164.65,164.65,0,0,0-48.61-63.48,161.73,161.73,0,0,0-101.56-35.37c-90.13,0-163.46,73.33-163.46,163.46A165.83,165.83,0,0,0,253,340.15c-82.76,8-147.69,77.89-147.69,162.71,0,89,71.53,161.63,160.13,163.42L378.6,862.37a17.52,17.52,0,0,0,15.16,8.75H630.24a17.52,17.52,0,0,0,15.16-8.75L758.61,666.28C847.21,664.49,918.74,591.88,918.74,502.86ZM620.14,836.12H403.86L295.72,648.82l108.14-187.3H620.14l108.14,187.3ZM758.56,631.28l-113.16-196a17.52,17.52,0,0,0-15.16-8.75H393.76a17.52,17.52,0,0,0-15.16,8.75l-113.16,196a128.47,128.47,0,0,1,3.29-256.89c1.54,0,3.23,0,5.18.09a17.5,17.5,0,0,0,17.36-22.35,128.5,128.5,0,1,1,246.94-71.19c.44,1.5.84,3,1.22,4.53a17.51,17.51,0,0,0,29.17,8.38A127.76,127.76,0,0,1,658,257.67c63.24,0,117.86,47.08,127.07,109.52a17.51,17.51,0,0,0,11.67,14,128.49,128.49,0,0,1-38.15,250.07Z" transform="translate(-105.31 -152.92)"/><path class="cls-1" d="M512,775.4a50.39,50.39,0,0,1-50.34-50.34V662.31a79.07,79.07,0,1,1,100.68,0v62.75A50.39,50.39,0,0,1,512,775.4Zm0-218.16a44.08,44.08,0,0,0-23.49,81.37,17.5,17.5,0,0,1,8.15,14.8v71.65a15.34,15.34,0,0,0,30.68,0V653.41a17.5,17.5,0,0,1,8.15-14.8A44.08,44.08,0,0,0,512,557.24Z" transform="translate(-105.31 -152.92)"/></svg>
