<svg xmlns="http://www.w3.org/2000/svg" width="251.20136" height="171.22353" viewBox="0 0 251.20136 171.22353">
  <g id="Layer_1" data-name="Layer 1">
    <g>
      <g>
        <path d="M175.26639,51.365a3.87464,3.87464,0,0,0-2.552-4.05326c-3.06232-1.38515-9.908-4.65376-14.5617-4.80387v.10816l-.01033-.10816c-4.65373.15011-11.47446,3.4752-14.56167,4.80387a3.72093,3.72093,0,0,0-2.55207,4.05326c0,1.201-.52542,13.736.37531,19.966s16.73843,13.13555,16.73843,13.13555l.01033-.19189v.19189s15.8377-6.90553,16.73843-13.13555S175.26639,52.566,175.26639,51.365ZM158.15265,77.6279c-1.91877-.90934-11.22485-5.51121-11.79345-9.44389-.63416-4.38622-.26423-13.21148-.26423-14.057s-.36993-1.90244,1.79679-2.85366c2.0592-.90407,6.96632-3.04505,10.26089-3.34636Z" fill="#fff"/>
        <path d="M153.72858,31.10042a34.51545,34.51545,0,0,1,.97412,5.16185,21.50764,21.50764,0,0,1,4.16989-.62232h.0135c.47274.01525.96733.06313,1.47086.1251a40.06528,40.06528,0,0,0-25.48-33.10618q-.6255-.24019-1.2611-.459c-1.075-.37165-2.16772-.70475-3.282-.98524-.18482-.04651-.37273-.08495-.55855-.12891q-.8664-.20487-1.74619-.37329a40.10372,40.10372,0,0,0-5.26883-.64694C122.01905.02473,121.27368,0,120.52231,0A40.14424,40.14424,0,0,0,80.45,40.07236c0,.88411.03883,1.75868.09521,2.62854A40.07484,40.07484,0,0,0,135.23678,77.344c.99727-.39407,1.96675-.84069,2.92286-1.31041a7.401,7.401,0,0,1-1.11587-2.805c-.12407-.85813-.22631-1.81193-.31186-2.82642a34.196,34.196,0,0,1-4.98432,2.18232,61.35971,61.35971,0,0,1-5.18675-9.591,6.678,6.678,0,0,0,1.2582-1.77314,67.976,67.976,0,0,0,8.54212-.64837c-.014-2.12064.002-4.19025.03-6.05038a61.69013,61.69013,0,0,1-8.59383.79153,6.66294,6.66294,0,0,0-4.83445-3.58731,61.6534,61.6534,0,0,1-1.37849-12.43719c1.1018.06783,2.21086.10508,3.32773.10508.84363,0,1.68142-.02727,2.51637-.06686A6.66137,6.66137,0,0,0,133.3239,42.887c.08551,0,.16852-.00958.25325-.01278.88677,2.05052,1.86046,4.05463,2.93807,5.99429.023-.84934.03912-1.43818.03912-1.67783,0-1.465-.59774-3.27232,2.60873-4.94172-.26488-.565-.51637-1.13737-.7655-1.71095a6.63146,6.63146,0,0,0,1.50316-3.28072A55.83667,55.83667,0,0,0,153.72858,31.10042ZM86.12645,40.07236a34.25761,34.25761,0,0,1,2.989-14.021,59.25627,59.25627,0,0,0,8.20349,5.77623,6.599,6.599,0,0,0,2.76807,6.60512,67.44574,67.44574,0,0,0-1.2329,10.425A61.52871,61.52871,0,0,1,86.13352,40.352C86.13277,40.2584,86.12645,40.16613,86.12645,40.07236Zm.97118,8.11223a67.26648,67.26648,0,0,0,11.792,6.94611A67.24036,67.24036,0,0,0,100.897,68.31359,34.42191,34.42191,0,0,1,87.09763,48.18459ZM100.4077,27.276a53.87739,53.87739,0,0,1-8.70533-5.9693,34.37749,34.37749,0,0,1,24.9529-15.40814,67.36174,67.36174,0,0,0-12.95239,20.40167A6.62086,6.62086,0,0,0,100.4077,27.276Zm4.88889,12.192a6.65841,6.65841,0,0,0,3.85757-2.44469,53.8816,53.8816,0,0,0,7.11819,1.6705l-.00043.033a67.49756,67.49756,0,0,0,1.52319,14.27335,6.69478,6.69478,0,0,0-1.45648,1.52793,60.975,60.975,0,0,1-12.2332-3.33832A61.70885,61.70885,0,0,1,105.29659,39.468Zm20.94112,34.5187a34.33271,34.33271,0,0,1-18.673-2.05159,61.0929,61.0929,0,0,1-3.18989-14.57685,66.96123,66.96123,0,0,0,11.09548,2.89864,6.66358,6.66358,0,0,0,6.10765,4.68458A67.0633,67.0633,0,0,0,126.23771,73.98668Zm-9.709-41.12119a49.14976,49.14976,0,0,1-6.16-1.41819,6.646,6.646,0,0,0-1.70836-3.13146,61.55585,61.55585,0,0,1,15.777-22.41117c.11552.01307.23.02965.34509.04386A66.89132,66.89132,0,0,0,116.52876,32.86549Zm10.75646.54828q-1.43856.08548-2.89623.08674c-.86574,0-1.72613-.02534-2.582-.07009a61.0395,61.0395,0,0,1,6.48009-22.64777q-.2142,2.68518-.21819,5.42609a67.5293,67.5293,0,0,0,1.5646,14.464A6.68682,6.68682,0,0,0,127.28522,33.41377Zm10.78868-1.86451a6.65062,6.65062,0,0,0-3.19161-1.80218,61.77716,61.77716,0,0,1-1.01158-21.38332A34.52035,34.52035,0,0,1,151.6116,25.34888,51.10364,51.10364,0,0,1,138.0739,31.54926Z" fill="#fff"/>
      </g>
      <g>
        <g>
          <path d="M19.4,171.02353v-16.2l-7,10.6h-.1l-7-10.5v16.1H0v-24.8H5.9l6.6,10.5,6.5-10.5h5.9v24.8Z" fill="#fff"/>
          <path d="M61.6,171.22353l-2.3-5.6H48.7l-2.3,5.6H40.8l10.6-25h5.1l10.6,25Zm-7.6-18.5-3.3,8.1h6.6Z" fill="#fff"/>
          <path d="M98.2,171.02353l-5.6-8.5-5.6,8.5H80.7l8.7-12.6-8.4-12.2h6.4l5.3,8.1,5.3-8.1h6.3l-8.4,12.1,8.7,12.7Z" fill="#fff"/>
        </g>
        <path d="M140.3,171.02353v-16.2l-7,10.6h-.1l-7-10.5v16.1h-5.4v-24.8h5.9l6.6,10.5,6.6-10.5h5.9v24.8Z" fill="#fff"/>
        <g>
          <path d="M164.1,171.02353v-24.8h5.5v24.8Z" fill="#fff"/>
          <path d="M205.5,171.02353l-12-15.8v15.8h-5.4v-24.8h5.1l11.6,15.3v-15.3h5.4v24.8h-4.7Z" fill="#fff"/>
          <path d="M238,171.02353h-9.7v-24.8H238c7.9,0,13.2,5.4,13.2,12.3v.1C251.3,165.52353,245.9,171.02353,238,171.02353Zm7.6-12.4a7.13865,7.13865,0,0,0-7.5-7.5h-4.3v15h4.3c4.4-.1,7.5-3.1,7.5-7.5Z" fill="#fff"/>
        </g>
      </g>
      <path d="M127.63314,114.91109V121.279h-4.06492v-6.36786h-6.337v-4.034h6.337v-6.337h4.06492v6.337h6.337v4.034Z" fill="#fff"/>
    </g>
  </g>
</svg>
