<svg id="Layer_1" data-name="Layer 1" xmlns="http://www.w3.org/2000/svg" width="235.79648" height="129.38009" viewBox="0 0 235.79648 129.38009">
  <g id="Layer_1-2" data-name="Layer 1">
    <g>
      <g>
        <g>
          <path d="M18.53371,129.19264V114.00871l-6.561,9.93517H11.879l-6.561-9.84144v15.09021H.35048V105.94811H5.88043l6.18605,9.84144,6.09232-9.84144h5.52995v23.24454Z" fill="#fff"/>
          <path d="M58.08692,129.38009l-2.15574-5.24877H45.996l-2.15574,5.24877H38.5915l9.93517-23.432H53.3068l9.93516,23.432ZM50.9636,112.04041l-3.093,7.592h6.18605Z" fill="#fff"/>
          <path d="M92.39137,129.19264l-5.24877-7.96688-5.24876,7.96688H75.989L84.1433,117.3829l-7.87315-11.43481h5.99859l4.96759,7.592,4.96758-7.592h5.90487l-7.87315,11.3411L98.39,129.19264Z" fill="#fff"/>
        </g>
        <path d="M131.85086,129.19264V114.00871l-6.561,9.93517h-.09373l-6.561-9.84144v15.09021h-5.06132V105.94811h5.53l6.18605,9.84144,6.18605-9.84144h5.52995v23.24454Z" fill="#fff"/>
        <g>
          <path d="M154.15813,129.19264V105.94809h5.155v23.24455Z" fill="#fff"/>
          <path d="M192.96151,129.19264l-11.24736-14.809v14.809h-5.0613V105.94809H181.433l10.87245,14.34039V105.94809h5.06131v23.24455h-4.40523Z" fill="#fff"/>
          <path d="M223.42311,129.19264H214.3315V105.94809h9.09161c7.40451,0,12.37209,5.06131,12.37209,11.52855v.09373C235.88894,124.0376,230.82762,129.19264,223.42311,129.19264Zm7.12333-11.62227a6.69091,6.69091,0,0,0-7.0296-7.0296h-4.0303V124.6h4.0303A6.79445,6.79445,0,0,0,230.54644,117.57037Z" fill="#fff"/>
        </g>
      </g>
      <path d="M121.63785,76.29837v6.36792h-4.06492V76.29843h-6.337v-4.034h6.337v-6.337h4.06492v6.337h6.337v4.034Z" fill="#fff"/>
      <g>
        <path d="M65.94864,39.8106c8.30848,0,13.3714-4.76513,13.3714-12.8659s-5.0197-12.86587-13.3714-12.86587H57.12083V39.76722h8.82781ZM65.689,9.61692c11.68386,0,18.65077,6.49788,18.65077,17.37115,0,10.87313-6.92368,17.37107-18.65077,17.37107H54.87057a2.46781,2.46781,0,0,1-2.68284-2.64252V12.25941a2.46782,2.46782,0,0,1,2.68284-2.64249Z" fill="#fff"/>
        <path d="M93.38385,29.67382h16.57373a8.5198,8.5198,0,0,0-16.57373,0Zm20.94441,1.2129a2.63139,2.63139,0,0,1-2.89943,2.8591H93.254c.73576,4.24536,3.93794,7.06109,8.65475,7.06109a8.86384,8.86384,0,0,0,6.92368-2.94571,2.3045,2.3045,0,0,1,1.7743-.8231,2.03426,2.03426,0,0,1,2.16364,2.12275,2.30911,2.30911,0,0,1-.4761,1.34287,13.34052,13.34052,0,0,1-10.38552,4.50517c-8.04881,0-13.41478-5.24167-13.41478-12.99573,0-7.711,5.32259-12.99588,13.15511-12.99588,7.31319,0,12.67916,5.19829,12.67916,11.82621Z" fill="#fff"/>
        <path d="M157.25588,29.977V42.19316a2.14481,2.14481,0,0,1-2.25025,2.42594,2.19686,2.19686,0,0,1-2.29393-2.42594V30.49693c0-4.8085-2.03338-7.36428-5.84251-7.36428-3.9806,0-6.40391,3.11892-6.40391,8.18738V42.19316a2.15539,2.15539,0,0,1-2.29349,2.42594,2.17732,2.17732,0,0,1-2.20688-2.42594V30.49693c0-4.8085-2.034-7.36428-5.88516-7.36428-3.98117,0-6.40449,3.11892-6.40449,8.18738V42.19316a2.25665,2.25665,0,1,1-4.50052,0V21.7464c0-1.5596.82224-2.46931,2.207-2.46931a2.18974,2.18974,0,0,1,2.29348,2.46931v.60638h.08645a8.73342,8.73342,0,0,1,7.35657-3.42211c3.67828,0,6.31789,1.51609,7.7459,4.28859h.08661c1.73092-2.72913,4.67343-4.28859,8.74078-4.28859C154.09592,18.9739,157.25588,22.78609,157.25588,29.977Z" fill="#fff"/>
        <path d="M186.33454,21.7464V42.32314c0,7.66746-4.71594,12.25938-12.41862,12.25938-4.63006,0-8.39552-1.2995-10.47257-3.9854a2.45807,2.45807,0,0,1-.476-1.42948,2.1803,2.1803,0,0,1,3.85135-1.38625,9.251,9.251,0,0,0,6.924,2.64252c5.02015,0,8.00544-2.98908,8.00544-7.88419v-2.166h-.08733c-1.86017,2.55592-4.84547,3.9854-8.74047,3.9854-6.83665,0-10.55846-4.02877-10.55846-11.56625V21.7464a2.18909,2.18909,0,0,1,2.29248-2.46931c1.42933,0,2.208.90971,2.208,2.46931V32.31635c0,5.11168,2.46567,7.84081,7.13939,7.84081,4.76106,0,7.74635-3.33565,7.74635-8.75052V21.7464a2.29951,2.29951,0,1,1,4.5864,0Z" fill="#fff"/>
        <path d="M202.73548,29.63045c8.22231.08675,11.12174,2.38256,11.12174,7.4944,0,4.93833-4.02455,7.84081-10.8612,7.84081-5.237,0-8.656-1.03969-11.078-3.29227a2.26467,2.26467,0,0,1-.69284-1.60283,2.02357,2.02357,0,0,1,2.077-2.166,2.82237,2.82237,0,0,1,1.64476.64975,11.69634,11.69634,0,0,0,7.7027,2.38256c4.1963,0,6.66341-1.47286,6.66341-3.89879,0-2.166-1.60107-3.07569-7.0535-3.11892-7.87589-.04338-10.77532-2.166-10.77532-7.06109,0-4.8085,4.19776-7.92742,10.819-7.92742,4.24,0,7.18306.86634,9.56287,2.859a2.29466,2.29466,0,0,1,.82236,1.77619,2.09585,2.09585,0,0,1-2.12069,2.296,2.02566,2.02566,0,0,1-1.34056-.47654A10.30978,10.30978,0,0,0,202.606,23.0459c-4.02455,0-6.62124,1.51623-6.62124,3.85542C196.072,28.85072,197.54215,29.58722,202.73548,29.63045Z" fill="#fff"/>
        <path d="M235.53741,40.46035c-1.47155,2.98908-4.41464,4.50531-8.266,4.50531-5.79886,0-9.30377-3.68221-9.30377-9.83359V13.559a2.17606,2.17606,0,0,1,2.2939-2.4259c1.42789,0,2.2066.90971,2.2066,2.4259v6.02142h9.82339a2.00292,2.00292,0,0,1,2.2066,2.12261,1.97138,1.97138,0,0,1-2.2066,2.07937H222.4245V35.26205c0,3.46548,1.86161,5.50163,5.02012,5.50163a4.94643,4.94643,0,0,0,4.50053-2.59929,1.99,1.99,0,0,1,1.77428-.95294,2.04772,2.04772,0,0,1,2.07705,2.166A2.225,2.225,0,0,1,235.53741,40.46035Z" fill="#fff"/>
        <path d="M35.09467,29.0673c-.12984,2.296-.9953,4.89511-5.236,6.19475-7.0969,2.20936-11.16453,7.14769-12.67916,8.66392a18.39152,18.39152,0,0,0-4.45715,8.18738c-1.2982,4.50517-2.46659,6.108-6.57756,6.108A6.10712,6.10712,0,0,1,0,52.11335c0-3.379,1.99057-5.67483,6.10154-6.10815,9.69318-1.08291,16.74685-7.49425,16.74685-16.76454v-.26c0-9.2703-7.05367-15.68162-16.74685-16.76461C1.99057,11.7829,0,9.487,0,6.10805A6.09772,6.09772,0,0,1,6.10154,0c4.111,0,6.015,2.33925,6.6641,6.10805a16.333,16.333,0,0,0,4.37065,8.18737c1.55786,1.51619,5.58227,6.45467,12.679,8.66388,4.24084,1.34287,5.1063,3.89879,5.23614,6.19475V29.0673Z" fill="#fff"/>
        <path d="M4.45715,35.26205H5.75536a6.297,6.297,0,0,0,6.36117-5.76143A6.11254,6.11254,0,0,0,6.015,23.00268s-1.34147-.04338-1.68766,0a2.818,2.818,0,0,0-2.59639,2.46916,32.49425,32.49425,0,0,0,0,7.10446A2.96449,2.96449,0,0,0,4.45715,35.26205Z" fill="#fff"/>
      </g>
    </g>
  </g>
</svg>
