<svg xmlns="http://www.w3.org/2000/svg" id="Layer_1" viewBox="0 0 370.7 74.7"><g><path d="M127.51,26.31h5.29c.87,0,1.61,.74,1.61,1.66v28.89c0,.92-.74,1.66-1.61,1.66h-4.65c-.87,0-1.61-.74-1.61-1.66v-17.48l-7.91,13.02c-.32,.51-.83,.78-1.43,.78h-1.06c-.55,0-1.1-.28-1.38-.78l-7.91-13.02v17.48c0,.92-.74,1.66-1.66,1.66h-4.6c-.92,0-1.66-.74-1.66-1.66V27.96c0-.92,.74-1.66,1.66-1.66h5.25c.87,0,1.66,.46,2.12,1.2l8.7,14.31,8.74-14.31c.46-.74,1.24-1.2,2.12-1.2Z" fill="#fff"/><path d="M166.79,57.08l-1.43-4.6h-12.19l-1.43,4.6c-.28,.83-1.06,1.43-1.98,1.43h-5.01c-.83,0-1.43-.83-1.15-1.66l10.54-29.21c.28-.78,1.06-1.33,1.93-1.33h6.4c.87,0,1.66,.55,1.93,1.33l10.49,29.21c.32,.83-.28,1.66-1.15,1.66h-4.97c-.92,0-1.7-.6-1.98-1.43Zm-3.31-10.54l-4.23-13.43-4.19,13.43h8.42Z" fill="#fff"/><path d="M209.8,58.51h-5.29c-.87,0-1.66-.46-2.07-1.15l-5.57-8.97-5.52,8.97c-.41,.69-1.24,1.15-2.07,1.15h-5.29c-.97,0-1.56-1.06-1.06-1.89l9.2-14.68-8.42-13.76c-.51-.83,.09-1.89,1.06-1.89h5.29c.88,0,1.66,.46,2.12,1.2l4.69,8.05,4.74-8.05c.46-.74,1.24-1.2,2.12-1.2h5.29c.96,0,1.56,1.06,1.06,1.89l-8.42,13.76,9.2,14.68c.51,.83-.09,1.89-1.06,1.89Z" fill="#fff"/><path d="M249.18,26.31h5.29c.88,0,1.61,.74,1.61,1.66v28.89c0,.92-.74,1.66-1.61,1.66h-4.65c-.87,0-1.61-.74-1.61-1.66v-17.48l-7.91,13.02c-.32,.51-.83,.78-1.43,.78h-1.06c-.55,0-1.1-.28-1.38-.78l-7.91-13.02v17.48c0,.92-.74,1.66-1.66,1.66h-4.6c-.92,0-1.66-.74-1.66-1.66V27.96c0-.92,.74-1.66,1.66-1.66h5.24c.88,0,1.66,.46,2.12,1.2l8.69,14.31,8.74-14.31c.46-.74,1.24-1.2,2.12-1.2Z" fill="#fff"/><path d="M268.63,26.31h4.6c.92,0,1.66,.74,1.66,1.66v28.89c0,.92-.74,1.66-1.66,1.66h-4.6c-.92,0-1.66-.74-1.66-1.66V27.96c0-.92,.74-1.66,1.66-1.66Z" fill="#fff"/><path d="M306.86,26.31h4.65c.87,0,1.61,.74,1.61,1.66v28.89c0,.92-.74,1.66-1.61,1.66h-3.96c-.83,0-1.61-.41-2.02-1.1l-11.87-17.67v17.11c0,.92-.74,1.66-1.61,1.66h-4.65c-.92,0-1.66-.74-1.66-1.66V27.96c0-.92,.74-1.66,1.66-1.66h3.96c.83,0,1.56,.41,2.02,1.1l11.82,17.67V27.96c0-.92,.74-1.66,1.66-1.66Z" fill="#fff"/><path d="M352.35,42.41c0,9.85-6.35,16.1-17.07,16.1h-9.66c-.88,0-1.61-.74-1.61-1.66V27.96c0-.92,.74-1.66,1.61-1.66h9.66c10.72,0,17.07,6.26,17.07,16.1Zm-7.87,0c0-5.7-3.96-8.7-9.2-8.7h-3.4v17.34h3.4c5.25,0,9.2-2.94,9.2-8.65Z" fill="#fff"/></g><path d="M88.54,38.01c-.13-.45-.77-2.48-2.74-3.93-1.36-.99-2.72-1.24-3.83-1.45-2.85-.52-3.55,.38-5.56-.49-1.19-.51-2.26-1.4-2.54-1.64-.53-.44-.61-.59-1.53-1.53-1.89-1.94-2.38-2.18-3.66-3.66-.96-1.11-1.25-1.63-1.36-1.85-.18-.34-.6-1.21-.83-2.65-.36-2.29,.3-2.67-.02-4.63,0,0,0-.02,0-.03,0,0,0,0,0-.01-.04-.23-.09-.44-.14-.64-.14-.6-.35-1.16-.63-1.69-.06-.13-.13-.25-.18-.34-.05-.08-.09-.15-.14-.23-.04-.06-.07-.12-.1-.15-.06-.08-.21-.31-.43-.58,0,0,0,0,0,0-.52-.65-1.44-1.62-2.66-2.04,0,0-.02,0-.03,0-1.87-.89-4.18-1.01-6.62,.15-2.9,1.75-3.77,3.62-3.8,5.73-.03,.29-.06,.58-.06,.88,0,1.01,.2,1.96,.56,2.84,.23,1.02,.48,2.09,.69,3.23,.22,1.2,.38,2.4,.48,3.59,0,.22,.01,.33,.02,.54,0,.03,0,.09,0,.17,0,.13,0,.23,0,.28,0,.02,0,.1,0,.2,0,.24-.02,.47-.02,.55-.03,.6-.15,1.43-.15,1.43-.05,.38-.12,.76-.26,1.55-.14,.78-.21,1.18-.33,1.74-.24,1.16-.37,1.81-.62,2.68-.23,.79-.46,1.41-.61,1.79-.27,.71-.52,1.22-.76,1.72-.37,.77-.55,1.16-.79,1.54-.27,.43-.65,1.01-1.31,1.58-.42,.36-.81,.59-1.17,.8-.18,.1-.62,.36-1.17,.6-.2,.08-.44,.18-.65,.26-.3,.09-.59,.19-.91,.25-.64,.13-1.3,.17-1.96,.15-.09,0-.19-.01-.3-.02-.36-.04-.65-.09-.79-.11-.09-.02-.37-.07-.75-.18-.09-.03-.62-.18-1.14-.4-.59-.25-1.13-.58-1.79-1.05-.74-.54-1.35-1.09-2.54-2.17-.28-.26-.27-.25-1.72-1.59-1.38-1.28-1.35-1.24-1.38-1.27-.77-.76-2.11-2.08-2.75-4.12-.32-1-.36-1.85-.39-2.29,0-.02,0-.03,0-.04,0-.18,.02-.36,.04-.54,.06-.52,.09-1.02,.1-1.53,.02-.27,.04-.57,.04-.96,0-.29-.02-1.41-.33-2.82,0-.03-.01-.06-.02-.09-.16-.85-.44-1.66-.8-2.42-.1-.22-.17-.37-.21-.44,0-.02-.02-.04-.03-.06,0-.01-.02-.03-.02-.04-.55-1.04-1.16-1.7-1.16-1.7h0c-1.88-2.22-4.68-3.63-7.81-3.63-5.65,0-10.23,4.58-10.23,10.23,0,1.51,.34,2.94,.92,4.23,1.06,3.09,3.39,5.54,6.79,5.89,0,0,0,0,0,.01,.02,0,.18,.02,.47,.03,0,0,0,0,0,0,.13,0,.28,.01,.47,.02,.27,.01,.54,.03,.92,.04,.3,.01,.57,.02,.92,.02,.76,.01,1.35,.02,1.49,.02,1.73,0,2.6,.01,3.72,.16,.18,.02,.35,.05,.51,.08,.05,0,.1,.01,.14,.02,.03,0,.06,.01,.09,.02,.85,.17,1.66,.39,2.43,.67,0,0,0,0,0,0,.03,0,.05,.02,.07,.03,1.58,.61,2.66,1.36,2.91,1.53,.44,.32,.76,.59,1.4,1.14,.57,.49,1,.9,1.36,1.24,.73,.69,1.26,1.24,1.37,1.35,.14,.15,.49,.52,1.18,1.26,.68,.73,.76,.82,.9,.99,.2,.24,.35,.42,.48,.59,.2,.32,.36,.62,.49,.91,.02,.06,.05,.13,.09,.19,1.27,2.98-.99,4.07,.16,9.07,.93,4.02,3.69,6.47,6.89,7.44,1.01,.34,2.1,.53,3.22,.53,1.47,0,2.87-.32,4.14-.88,2.56-1.06,4.69-3.12,5.59-6.19,0-.01,0-.02,0-.03,.32-.99,.49-2.04,.49-3.13,0-2.11-.64-4.07-1.73-5.69-.61-1.3-1.3-2.57-1.86-3.94,0-.03-.02-.06-.05-.12-.09-.23-.18-.46-.26-.69-.02-.07-.04-.13-.04-.15,0,0-.04-.14-.08-.28-.31-1.25-.25-2.94-.25-2.94,.04-1.03,.17-1.79,.3-2.49,.13-.71,.25-1.2,.47-2.07,.17-.69,.33-1.26,.77-2.8,.45-1.57,.67-2.35,.71-2.44,0,0,.67-1.71,1.82-3.2,.18-.23,.35-.44,.35-.44,.13-.15,.24-.26,.29-.32,0,0,.04-.04,.08-.08,.49-.43,.97-.98,1.62-1.32,1.07-.56,2.29-.76,3.77-.1,.59,.26,1.09,.67,2.09,1.48,.52,.42,1.21,1.02,2.74,2.59,1.47,1.51,2.2,2.26,2.48,2.67,.29,.43,1.36,2.05,1.81,4.43,.26,1.38,0,1.36,.27,3.08,.24,1.52,.44,2.8,1.27,4.14,1.03,1.66,2.44,2.47,2.77,2.65,2.55,1.41,5.04,.81,5.49,.7,3.06-.79,4.46-3.22,4.69-3.61,.22-.39,1.5-2.79,.65-5.74Z" fill="#fff"/><path d="M361.97,30.51c0,2.34-1.91,4.25-4.25,4.25s-4.25-1.91-4.25-4.25,1.9-4.25,4.25-4.25,4.25,1.91,4.25,4.25Zm-.65,0c0-1.99-1.62-3.61-3.6-3.61s-3.61,1.62-3.61,3.61,1.62,3.61,3.61,3.61,3.6-1.62,3.6-3.61Zm-2.83,.36l1.03,1.56c.07,.11,0,.25-.13,.25h-.29c-.11,0-.2-.05-.26-.14l-1.03-1.57h-.94v1.5c0,.12-.1,.22-.2,.22h-.22c-.12,0-.22-.1-.22-.22v-4.03c0-.11,.1-.2,.22-.2h1.38c1.02,0,1.61,.6,1.61,1.37,0,.59-.35,1.07-.95,1.27Zm-.66-.49c.61,0,.95-.3,.95-.78s-.34-.79-.95-.79h-.96v1.57h.96Z" fill="#fff"/></svg>
