<?xml version="1.0" encoding="utf-8"?>
<svg version="1.1" id="Layer_1" xmlns="http://www.w3.org/2000/svg" xmlns:xlink="http://www.w3.org/1999/xlink" x="0px" y="0px"
	 viewBox="0 0 151.5 98.9" style="enable-background:new 0 0 151.5 98.9;" xml:space="preserve">
<style type="text/css">
	.st0{fill:#FFFFFF;}
</style>
<path class="st0" d="M128.1,78.1c-2,3.1-3.6,5.3-3.6,5.3s-2.2-3-4.6-6.9h-10.1l16.5,21.7h24.4L128.1,78.1z"/>
<polygon class="st0" points="41.6,69.2 48.3,62 41.4,62 33.3,69.2 33.3,69.2 "/>
<polygon class="st0" points="41.7,76.5 36,83.7 99.5,83.7 96.2,76.5 "/>
<polygon class="st0" points="36,83.7 99.5,83.7 96.2,76.5 41.7,76.5 "/>
<polygon class="st0" points="41.6,69.2 48.3,62 41.4,62 33.3,69.2 "/>
<polygon class="st0" points="31.8,89.2 24.7,98.2 106.2,98.2 102,89.2 "/>
<path class="st0" d="M124.5,53c-5.5,0-9.9,4.4-9.9,9.9s9.9,19,9.9,19s9.9-13.5,9.9-19C134.5,57.4,130,53,124.5,53L124.5,53z
	 M124.5,67.4c-2.5,0-4.5-2-4.5-4.5s2-4.5,4.5-4.5s4.5,2,4.5,4.5C129.1,65.4,127,67.4,124.5,67.4z"/>
<path class="st0" d="M62.9,1.3c-12.6,0-22.6,10-22.6,22.6s22.6,43.4,22.6,43.4s22.6-30.8,22.6-43.4C85.7,11.3,75.5,1.3,62.9,1.3
	L62.9,1.3z M62.9,34.1c-5.7,0-10.3-4.6-10.3-10.3s4.6-10.3,10.3-10.3s10.3,4.6,10.3,10.3C73.4,29.6,68.6,34.1,62.9,34.1z"/>
<path class="st0" d="M94.1,51.9c-2.5,0-4.5,2-4.5,4.5s4.5,8.6,4.5,8.6s4.5-6.1,4.5-8.6C98.7,53.9,96.6,51.9,94.1,51.9L94.1,51.9z
	 M94.1,58.5c-1.1,0-2-0.9-2-2s0.9-2,2-2s2,0.9,2,2C96.2,57.6,95.3,58.5,94.1,58.5z"/>
<path class="st0" d="M25.2,66.8c-2.5,0-4.5,2-4.5,4.5s4.5,8.6,4.5,8.6s4.5-6.1,4.5-8.6C29.7,68.8,27.7,66.8,25.2,66.8L25.2,66.8z
	 M25.2,73.3c-1.1,0-2-0.9-2-2c0-1.1,0.9-2,2-2c1.1,0,2,0.9,2,2C27.3,72.4,26.3,73.3,25.2,73.3z"/>
<path class="st0" d="M62.9,68.7c0,0-1.9-2.6-4.7-6.7H53l-5.7,7.2h25.5l0.6-7.2h-5.8C64.8,66.1,62.9,68.7,62.9,68.7z"/>
<path class="st0" d="M28.4,76.4c-1.5,2.6-3.2,4.9-3.2,4.9s-1-1.3-2.1-3L0.8,98.2H15l20-21.8H28.4z"/>
<path class="st0" d="M114.3,65.7l-4.2-3.7h-13c-1.4,2.4-3,4.5-3,4.5s-1.5-2.1-3-4.5H78l0.6,7.3h37.2
	C115.2,68.1,114.7,66.8,114.3,65.7z"/>
</svg>
