<?xml version="1.0" encoding="utf-8"?>
<!-- Generator: Adobe Illustrator 26.0.1, SVG Export Plug-In . SVG Version: 6.00 Build 0)  -->
<svg version="1.1" id="Layer_1" xmlns="http://www.w3.org/2000/svg" xmlns:xlink="http://www.w3.org/1999/xlink" x="0px" y="0px"
	 viewBox="0 0 151.5 98.9" style="enable-background:new 0 0 151.5 98.9;" xml:space="preserve">
<style type="text/css">
	.st0{fill:#FFFFFF;}
	.st1{fill:#D6E8FF;stroke:#276FE5;stroke-width:1.5607;stroke-linecap:round;stroke-linejoin:round;}
	.st2{fill:none;stroke:#276FE5;stroke-width:1.5607;stroke-linecap:round;stroke-linejoin:round;}
	.st3{fill:#FFFFFF;stroke:#276FE5;stroke-width:1.5607;stroke-linecap:round;stroke-linejoin:round;}
</style>
<g>
	<g>
		<polygon class="st0" points="150.7,98.2 110.1,62 41.4,62 0.8,98.2 		"/>
		<polygon class="st0" points="41.6,69.2 48.3,62 41.4,62 33.3,69.2 33.3,69.2 		"/>
		<polygon class="st0" points="41.7,76.5 36,83.7 99.5,83.7 96.2,76.5 		"/>
		<polygon class="st0" points="126.3,76.5 109.8,76.5 126.3,98.2 150.7,98.2 		"/>
		<path class="st1" d="M109.8,76.5h16.6l-8.1-7.2H78.6L78,62h-4.6l-0.6,7.2H47.3L53,62h-4.7l-6.7,7.2h-8.3l-8.1,7.2H35L15,98.2h9.7
			l7.1-9H102l4.2,9h20.1L109.8,76.5z M36,83.7l5.7-7.2h54.5l3.3,7.2H36z"/>
		<polygon class="st2" points="150.7,98.2 110.1,62 41.4,62 0.8,98.2 		"/>
	</g>
	<g>
		<g>
			<path class="st0" d="M66,0.8c-12.5-0.1-22.7,9.9-22.8,22.4c0,12.5,22.6,46.1,22.6,46.1s22.6-33.6,22.6-46.1
				C88.3,10.9,78.3,0.9,66,0.8z M65.8,34c-6,0-10.8-4.9-10.8-10.8c0-6,4.9-10.8,10.8-10.8s10.8,4.9,10.8,10.8
				C76.7,29.2,71.8,34,65.8,34z"/>
			<circle class="st2" cx="65.8" cy="23.2" r="10.8"/>
		</g>
		<path class="st2" d="M88.4,23.2c0,12.5-22.6,46.1-22.6,46.1S43.2,35.7,43.2,23.2C43.3,10.7,53.5,0.7,66,0.8
			C78.3,0.9,88.3,10.9,88.4,23.2z"/>
	</g>
	<path class="st3" d="M33.3,70.2c0,2.5-4.5,8.1-4.5,8.1s-4.5-5.6-4.5-8.1c0-2.5,2.1-4.5,4.6-4.4C31.3,65.8,33.3,67.7,33.3,70.2z"/>
	<path class="st3" d="M105.6,59.3c0,2.5-4.5,8.1-4.5,8.1s-4.5-5.6-4.5-8.1c0-2.5,2.1-4.5,4.6-4.4C103.6,54.9,105.5,56.9,105.6,59.3z
		"/>
	<path class="st3" d="M124.5,53c-5.5,0-9.9,4.4-9.9,9.9c0,5.5,9.9,19,9.9,19s9.9-13.5,9.9-19C134.5,57.4,130,53,124.5,53L124.5,53z
		 M124.5,67.4c-2.5,0-4.5-2-4.5-4.5c0-2.5,2-4.5,4.5-4.5c2.5,0,4.5,2,4.5,4.5C129.1,65.4,127,67.4,124.5,67.4z"/>
</g>
</svg>
